<?xml version="1.0" encoding="utf-8"?>
<!-- Generator: Adobe Illustrator 26.0.1, SVG Export Plug-In . SVG Version: 6.00 Build 0)  -->
<svg version="1.1" id="Layer_1" xmlns="http://www.w3.org/2000/svg" xmlns:xlink="http://www.w3.org/1999/xlink" x="0px" y="0px"
	 viewBox="0 0 477 520" style="enable-background:new 0 0 477 520;" xml:space="preserve">
<style type="text/css">
	.st0{fill:#2367D2;}
</style>
<g>
	<path class="st0" d="M472.02,257.79c-0.06,31.41-1.33,57.53-4.16,83.53c-1.25,11.52-3.31,22.95-6.2,34.27
		c-3.23,12.64-10.76,22.11-20.23,30.18c-42.88,36.54-91.09,64.62-141.87,88.54c-14.13,6.66-28.56,12.5-43.62,16.94
		c-13.78,4.06-26.87,2.38-40.11-1.83c-20.52-6.54-39.92-15.69-58.99-25.46c-37.69-19.3-73.87-41.1-107.31-67.22
		c-5.37-4.2-10.39-8.85-15.58-13.29C20.77,392.16,15.58,376.98,13,360.51c-6.44-41.11-7.92-82.47-6.35-124
		c0.82-21.63,2.11-43.2,5.27-64.65c2.79-18.92,7.3-36.84,22.7-50.08c7.84-6.74,15.65-13.51,24.01-19.56
		c44.64-32.33,92.06-59.76,143.13-80.68c10.48-4.29,21.3-7.55,32.53-9.17c9.68-1.4,18.81,1.58,27.86,4.32
		c19.8,6.01,38.4,14.97,56.78,24.29c39.86,20.22,77.98,43.27,113.11,71.07c6.81,5.39,13.06,11.38,18.88,17.82
		c9.28,10.27,11.8,23.2,14.1,36.17C470.72,198.11,471.34,230.57,472.02,257.79z M20.73,261.94c0.52,32.34,1.39,63.76,6.11,95.01
		c2.56,16.97,9.2,30.72,22.82,41.64c14.72,11.8,29.9,22.85,45.76,33c38.5,24.63,78.15,47.03,121.09,63.22
		c15.27,5.76,29.92,5.69,45.17-0.07c26.57-10.03,51.94-22.46,76.6-36.43c31.61-17.91,62.61-36.75,90.61-60.14
		c11.74-9.81,18.96-21.54,21.5-36.96c3.5-21.27,5.24-42.63,6.03-64.09C458,253.94,457.3,210.88,451,168
		c-2.5-17.04-9.84-30.47-23.38-41.24c-17.37-13.82-35.35-26.7-54.22-38.32c-35.77-22.02-72.36-42.44-111.88-57.23
		c-15.28-5.72-29.98-5.92-45.15,0.11c-61.1,24.26-117.49,56.57-168.69,97.87c-11.13,8.98-17.4,20.34-19.89,34.55
		C22.05,196.56,21.42,229.66,20.73,261.94z"/>
	<path class="st0" d="M25.91,253.34c1.29-29.07,1.88-58.15,6.79-87.01c2.65-15.57,10.56-26.86,22.29-36.4
		c30.61-24.89,64.15-45.24,98.73-64.02c17.27-9.38,35.2-17.28,53.05-25.42c21.46-9.79,42.12-9.82,63.85-0.32
		c54.7,23.93,106.21,53.05,153.07,90.2c13.07,10.36,20.16,23.59,22.41,40.18c5.55,40.89,6.89,81.91,5.2,123.08
		c-0.76,18.47-1.67,36.91-4.28,55.23c-1.08,7.57-2.63,15.04-4.6,22.41c-2.79,10.43-10.61,17.19-18.37,23.7
		c-30.63,25.69-64.75,46.09-99.78,65.09c-17.27,9.37-35.21,17.26-53.05,25.43c-21.46,9.82-42.11,9.83-63.84,0.33
		c-51.92-22.71-100.98-50.14-146-84.65c-3.56-2.73-6.82-5.86-10.37-8.62c-12.12-9.43-16.79-22.5-19.1-37.1
		c-2.69-16.97-3.83-34.04-4.85-51.14C26.05,287.35,25.64,270.36,25.91,253.34z M269.73,231.07c0-8.09,0.03-15.91-0.03-23.74
		c-0.01-1.48,0.73-3.95-2-3.5c-2.31,0.38-5.77-2.36-6.83,2.26c-0.85,3.7-3.67,5.6-7.23,5.81c-3.74,0.22-6.52-1.91-7.39-5.47
		c-0.59-2.4-1.66-2.81-3.75-2.75c-4.16,0.11-8.32,0.03-12.48,0.03c-1.33,0-2.7-0.17-3.01,1.74c-0.64,4.02-3.27,6.23-7.11,6.45
		c-4.27,0.25-6.55-2.47-7.82-6.34c-1.27-3.87-4.52-1.4-6.8-1.73c-2.74-0.4-1.97,2.07-1.97,3.53c-0.04,16.81,0.03,33.62-0.09,50.43
		c-0.02,2.89,0.5,4.09,3.77,4.03c10.64-0.22,21.28-0.08,32.07-0.08c-0.53-2.87-2.02-3.89-4.85-3.83
		c-7.32,0.16-14.65-0.07-21.97,0.12c-3.07,0.08-4.37-0.51-4.29-4.01c0.25-10.15,0.2-20.3,0.02-30.45c-0.06-3.12,0.97-3.91,3.96-3.89
		c16.31,0.13,32.62,0.15,48.93-0.01c3.3-0.03,4.6,0.95,4.09,4.2C264.39,227.4,265.58,229.9,269.73,231.07z M87.64,296.4
		c0.44-0.11,0.88-0.22,1.32-0.33c4.67,9.48,9.33,18.97,14.03,28.44c0.79,1.58,0.88,4.31,2.76,4.35c2.19,0.04,2.41-2.81,3.25-4.47
		c4.41-8.74,8.64-17.56,13.01-26.32c0.68-1.36,0.88-3.23,2.99-3.74c0.27,1.01,0.71,1.95,0.76,2.91c0.39,7.64,0.75,15.28,1.03,22.92
		c0.15,4.03-0.55,7.77-5.43,9.99c6.46,0,11.88,0,17.29,0c-3.71-1.48-6.62-2.97-6.63-7.42c-0.03-10.82-1.36-21.59-1.06-32.42
		c0.11-4.08-0.01-8,5.71-9.21c-7.69-2.46-8.84-1.95-11.59,4.15c-2.11,4.69-4.28,9.35-6.51,13.98c-3.49,7.23-7.07,14.42-10.99,22.41
		c-6.54-12.12-11.61-23.82-16.95-35.39c-3.08-6.68-6.82-8.11-14.97-5.04c6.13,1.28,8.76,4.76,8.61,10.41
		c-0.24,8.99-0.12,17.99-0.61,26.96c-0.23,4.33,0.01,9.27-5.5,11.75c5.14-0.56,9.94,0.87,14.78-0.3c-2.5-1.59-5.68-2.41-5.77-5.79
		C86.92,314.94,86.67,305.64,87.64,296.4z M187.09,330.01c11-0.79,21.74,2.34,32.35-0.28c10.13-2.5,17.16-11.49,18.43-22.9
		c1.17-10.59-3.52-19.15-13.29-23.97c-12.41-6.13-25.38-2.68-38.59-2.19c6.83,0.89,6.36,5.56,6.3,10.19
		c-0.11,9.82-0.14,19.65,0.02,29.47C192.38,324.47,191.89,328.02,187.09,330.01z M360.27,329.27c-7.01-0.8-9.71-5.56-12.89-9.7
		c-2.53-3.3-4.69-6.88-7.28-10.13c-2.43-3.05-2.61-5.07,1.13-7.41c4.51-2.83,5.63-7.53,4.98-12.67c-0.64-5.03-4.22-7.61-8.45-8.83
		c-9.01-2.6-18.12-0.1-27.5,0.05c6.55,1.15,6.86,5.61,6.74,10.62c-0.18,7.66,0.09,15.33-0.09,22.98c-0.14,5.89,2.3,12.77-5.37,16.4
		c6.43,0,12.86,0,19.3,0c0.46-0.39,0.91-0.77,1.37-1.16c-11.46-0.47-9.26-8.17-9.47-14.58c-0.03-0.83-0.01-1.67,0-2.5
		c0.04-5.8,0.5-6.11,6.33-5.63c2.56,0.21,3.75,1.77,4.98,3.6c3.62,5.37,7.03,10.91,10.99,16.02
		C348.85,331.23,353.68,332.18,360.27,329.27z M182.16,320.51c-1.33,1.27-1.97,2.03-2.75,2.6c-6.89,5.03-15.27,5.45-22.42,3.22
		c-5.05-1.58-1.39-8.96-2.22-13.66c-0.23-1.29-0.03-2.66,0.03-3.99c0.07-1.59,1.02-2.66,2.52-2.48c5.92,0.73,13.28-2.93,17.23,5.32
		c0-4.37,0-8.73,0-13.85c-1.68,2.22-2.21,4.4-4.48,4.82c-4.76,0.87-10,1.77-14.14-0.26c-2.8-1.37-0.75-6.15-0.91-9.4
		c-0.1-2.16-0.03-4.33,0.07-6.49c0.07-1.33,0.29-3.11,1.85-3.14c5.15-0.11,10.33-0.13,15.45,0.28c3.32,0.27,3.41,4.03,5.2,6.65
		c0.45-1.82,0.8-3.04,1.05-4.29c1.12-5.72,0.84-5.99-4.83-5.94c-7.16,0.06-14.33-0.01-21.49-0.02c-3.17,0-6.35,0-9.52,0
		c-0.37,0.47-0.73,0.95-1.1,1.42c8.54,0.18,7.54,5.78,7.53,10.72c-0.02,8.99-0.28,17.99-0.19,26.98c0.04,4.74-0.52,8.9-5.89,10.58
		c0.48,0.53,0.72,0.99,0.92,0.98c9.79-0.92,19.55,0.4,29.31,0.33C178.06,330.83,181.35,326.77,182.16,320.51z M277.39,290.28
		c2.13-1.96,1.24-3.82,1.78-5.27c1.68-4.47-0.2-5.37-4.4-5.23c-7.98,0.27-15.98-0.04-23.97,0.12c-2.51,0.05-5.19-1-9.03,1.2
		c8.8,0.54,8.3,6,8.21,11.36c-0.14,7.99-0.09,15.98-0.19,23.97c-0.07,5.22,0.32,10.67-5.74,14.11c10.51-1.92,20.63,1.01,30.78,0.21
		c4.46-0.35,7.86-5.42,7.4-9.91c-6.63,7.35-15.34,6.21-23.74,6.1c-2.8-0.04-3.38-2.31-3.42-4.62c-0.05-4,0.13-8-0.07-11.99
		c-0.17-3.42,1.55-4.6,4.53-4.26c5.48,0.63,12.25-2.32,15.18,5.97c0.35-2.86,0.3-5.02,0.36-7.18c0.07-2.18,0.26-4.36,0.39-6.53
		c-2.44,5.14-6.77,4.73-10.97,4.66c-10.14-0.18-9.3,1.76-9.29-9.28c0.01-10.75,0.02-10.73,10.85-10.74
		C271.23,282.98,276.79,282.19,277.39,290.28z M362.93,330.44c9.19-1.01,18.01-0.21,26.82,0.61c3.75,0.35,6.44-1.05,8.58-3.9
		c0.51-0.67,1.91-1.03,1.03-2.29c-0.85-1.23-1.85-0.25-2.64,0.06c-5.72,2.26-11.73,2.1-17.7,2.28c-3.14,0.09-5.09-1.16-5.05-4.64
		c0.05-4.33,0.07-8.66-0.01-12.99c-0.04-2.28,0.97-3.68,3.2-3.44c5.83,0.62,12.94-2.51,16.82,5.34c0-2.11,0-4.21,0-6.32
		c0-2.2,0-4.41,0-7.88c-1.58,2.45-2.12,4.19-3.72,4.79c-4.83,1.82-9.84,0.84-14.77,0.68c-1.11-0.04-1.42-1.33-1.42-2.35
		c0.01-4.82-0.42-9.66,0.53-14.44c0.22-1.08,0.15-2.69,1.62-2.76c3.99-0.19,8.01,0.13,11.98-0.21c4.99-0.43,7.15,2.55,8.43,6.8
		c1.51-1.41,1.04-2.85,1.38-4.08c1.35-4.96-0.44-6.15-5.41-5.91c-9.14,0.45-18.31,0.05-27.47,0.06c-0.98,0-2.4-0.78-2.89,1.38
		c6.38,0.61,6.72,5.09,6.57,10.13c-0.19,6.49,0.68,13.1-0.25,19.46C367.63,317.35,371.49,325.51,362.93,330.44z M238,248.42
		c0.08,9.8,8.32,18.14,18.09,18.29c9.9,0.16,18.56-8.36,18.64-18.34c0.08-10.19-8.52-18.53-18.95-18.37
		C245.99,230.14,237.92,238.51,238,248.42z M285.14,281.16c9.61,0.47,8.11,6.35,8.1,11.35c-0.02,8.64-0.14,17.28-0.27,25.91
		c-0.07,4.46,0.68,9.32-4.83,11.71c6.14,0,12.29,0,18.43,0c-6.99-3.35-7.77-4.38-7.8-12.43c-0.03-8.31,0.14-16.61,0.23-24.92
		c0.06-4.66-1.12-9.77,5.08-12.41c-5.72-0.47-10.82-0.48-15.92-0.45C287.77,279.93,287.38,280.23,285.14,281.16z M214.95,201.59
		c0.1,2.42-0.46,5.04,2.16,6.66c1.53,0.94,3.18,1.15,4.7,0.31c2.82-1.56,2.38-4.4,2.45-7.03c0.1-3.52-0.73-6.58-4.92-6.39
		C215.52,195.31,214.76,198.29,214.95,201.59z M248.81,201.39c-0.05,3.78-0.26,7.74,4.92,7.55c4.89-0.18,4.25-4.1,4.33-7.42
		c0.09-3.27-0.38-6.33-4.41-6.44C249.38,194.97,248.56,198.01,248.81,201.39z M230.33,231.52c2.27,0.26,3.91,0,3.73-2.97
		c-0.13-2.12,0.03-3.85-3-3.68c-2.34,0.14-4.13,0.04-3.97,3.3C227.21,230.58,227.6,232.05,230.33,231.52z M233.94,238.77
		c0.54-2.73-0.81-3.37-3.28-3.34c-2.28,0.03-3.6,0.28-3.59,3.14c0,2.86,0.98,3.6,3.7,3.58
		C233.36,242.14,234.46,241.36,233.94,238.77z M218.35,246.08c-2.55-0.48-3.65,0.45-3.46,3.17c0.15,2.06-0.21,3.89,2.95,3.82
		c2.66-0.06,3.96-0.55,3.8-3.56C221.51,247.17,221.26,245.51,218.35,246.08z M227.23,249.5c-0.66,3.1,1.01,3.48,3.62,3.56
		c2.85,0.09,3.21-1.19,3.2-3.56c0-2.36-0.34-3.65-3.2-3.56C228.25,246.03,226.57,246.4,227.23,249.5z M240.29,229.71
		c-0.02-0.05-1.02,2.43,1.79,1.87c2.02-0.4,4.05-1.24,4.15-4.05c0.09-2.4-1.19-2.5-3.04-2.62
		C240.58,224.74,239.51,225.69,240.29,229.71z M217.82,242.01c2,0.15,3.71,0.17,3.6-2.63c-0.09-2.16-0.1-3.82-3.05-3.78
		c-2.46,0.03-3.57,0.61-3.46,3.3C214.98,241.09,215.33,242.48,217.82,242.01z"/>
	<path class="st0" d="M211.28,328.07c-0.67,0-1.33,0.03-2,0c-9.33-0.44-11.72-2.86-11.04-12.13c0.65-8.99,0.33-17.97,0.31-26.95
		c-0.01-4.88,1.96-6.77,6.81-6.86c18.89-0.33,30.79,15.18,25.26,33.15C228.18,323.19,221.01,327.94,211.28,328.07z"/>
	<path class="st0" d="M322.88,293.36c0-1.32-0.01-2.65,0-3.97c0.09-7.3,1.97-8.62,9.15-6.43c6.6,2.01,10.02,8.52,7.82,14.88
		c-1.6,4.63-9.52,7.74-14.84,5.93c-1.53-0.52-2.07-1.49-2.07-2.95c-0.01-2.48,0-4.97,0-7.45
		C322.92,293.36,322.9,293.36,322.88,293.36z"/>
	<path class="st0" d="M256.25,262.07c-7.79-0.03-13.76-6.21-13.62-14.1c0.14-7.64,6.08-13.42,13.79-13.4
		c7.59,0.02,13.58,5.96,13.66,13.56C270.15,255.88,263.99,262.1,256.25,262.07z M256.63,251.13c2.51-2.9,7.04-3.48,10.16-6.43
		c0.24-0.23,0.24-1.07,0.01-1.37c-0.55-0.72-1.39-0.75-2.22-0.43c-3.21,1.22-6.02,3.35-9.49,4.01c-1.16,0.22-1.29,1.39-1.16,2.41
		C254.08,250.45,254.8,251.04,256.63,251.13z"/>
</g>
</svg>
